<svg viewBox="0 0 33 28" xmlns="http://www.w3.org/2000/svg" xmlns:xlink="http://www.w3.org/1999/xlink" width="33.000000" height="28.000000" fill="none" customFrame="url(#clipPath_0)">
	<defs>
		<linearGradient id="paint_linear_0" x1="16.5" x2="16.5" y1="0" y2="28" gradientUnits="userSpaceOnUse">
			<stop stop-color="rgb(53.55,95.2,178.5)" offset="0" stop-opacity="1" />
			<stop stop-color="rgb(19.6951,55.6301,127.5)" offset="1" stop-opacity="1" />
		</linearGradient>
		<clipPath id="clipPath_0">
			<rect width="33.000000" height="28.000000" x="0.000000" y="0.000000" rx="8.000000" fill="rgb(255,255,255)" />
		</clipPath>
	</defs>
	<rect id="Frame 28" width="33.000000" height="28.000000" x="0.000000" y="0.000000" rx="8.000000" fill="url(#paint_linear_0)" />
	<path id="x2" d="M8.32884 10.3636L10.1257 13.9574L11.9865 10.3636L15.4879 10.3636L12.4411 15.8182L15.6016 21.2727L12.1286 21.2727L10.1257 17.6506L8.17259 21.2727L4.64986 21.2727L7.81747 15.8182L4.80611 10.3636L8.32884 10.3636ZM17.0451 21.2727L17.0451 18.7443L22.3505 14.0994C22.7482 13.7396 23.0868 13.4105 23.3661 13.1122C23.6455 12.8092 23.8585 12.5062 24.0053 12.2031C24.1521 11.8954 24.2255 11.5616 24.2255 11.2017C24.2255 10.7992 24.1379 10.456 23.9627 10.1719C23.7875 9.88305 23.546 9.66051 23.2383 9.50426C22.9305 9.34801 22.5778 9.26989 22.18 9.26989C21.7776 9.26989 21.4248 9.35275 21.1218 9.51847C20.8188 9.67945 20.582 9.91383 20.4116 10.2216C20.2459 10.5294 20.163 10.9034 20.163 11.3438L16.832 11.3438C16.832 10.3542 17.0546 9.49953 17.4996 8.77983C17.9447 8.06013 18.5697 7.50616 19.3746 7.1179C20.1843 6.72491 21.1242 6.52841 22.1942 6.52841C23.2975 6.52841 24.2563 6.71307 25.0707 7.08239C25.8851 7.45171 26.5148 7.9678 26.9599 8.63068C27.4097 9.28883 27.6346 10.0535 27.6346 10.9247C27.6346 11.4787 27.5233 12.0279 27.3008 12.5724C27.0782 13.117 26.6781 13.7183 26.1005 14.3764C25.5276 15.0346 24.7132 15.8229 23.6573 16.7415L21.9173 18.3466L21.9173 18.4389L27.8121 18.4389L27.8121 21.2727L17.0451 21.2727Z" fill="rgb(255,255,255)" fill-rule="nonzero" />
</svg>
