<svg viewBox="0 0 28.167 22.833" xmlns="http://www.w3.org/2000/svg" xmlns:xlink="http://www.w3.org/1999/xlink" width="28.166992" height="22.833008" fill="none" customFrame="#000000">
	<path id="Goods" d="M14.2529 0.00390625C15.0973 0.0458898 15.8984 0.400367 16.499 1.00098C17.1397 1.64167 17.4999 2.51092 17.5 3.41699L17.5 5.33398L21.4443 5.33398L21.6777 5.34766C21.9091 5.3741 22.135 5.43945 22.3457 5.54102C22.6268 5.67658 22.8746 5.87332 23.0693 6.11719L27.708 11.916L27.8125 12.0586C28.0415 12.3998 28.1662 12.8023 28.167 13.2158L28.167 18.084C28.1669 18.6363 27.9471 19.166 27.5566 19.5566C27.166 19.9473 26.6355 20.1669 26.083 20.167L24.082 20.167C23.7401 21.6928 22.379 22.8329 20.75 22.833C19.1207 22.833 17.758 21.693 17.416 20.167L10.749 20.167C10.4072 21.6928 9.04593 22.8327 7.41699 22.833C5.78776 22.833 4.42499 21.693 4.08301 20.167L2.08301 20.167C1.53067 20.1669 1.00096 19.9472 0.610352 19.5566C0.21965 19.1659 8.88178e-16 18.6355 0 18.083L0 3.41699C6.47011e-05 2.51092 0.360285 1.64167 1.00098 1.00098C1.6417 0.36038 2.51095 1.5541e-15 3.41699 0L14.083 0L14.2529 0.00390625ZM7.41699 17.5C6.35853 17.5 5.50013 18.3586 5.5 19.417C5.50018 20.4754 6.35855 21.333 7.41699 21.333C8.47517 21.3327 9.33283 20.4752 9.33301 19.417C9.33288 18.3587 8.47519 17.5003 7.41699 17.5ZM20.75 17.5C19.6915 17.5 18.8331 18.3586 18.833 19.417C18.8332 20.4754 19.6916 21.333 20.75 21.333C21.8083 21.3328 22.6658 20.4753 22.666 19.417C22.6659 18.3587 21.8083 17.5002 20.75 17.5ZM3.41699 1.5C2.90878 1.5 2.42094 1.70223 2.06152 2.06152C1.70214 2.42091 1.50006 2.90875 1.5 3.41699L1.5 18.083C1.5 18.2377 1.5615 18.3867 1.6709 18.4961C1.7802 18.6053 1.92849 18.6669 2.08301 18.667L4.08398 18.667C4.42609 17.141 5.78788 16 7.41699 16C9.04589 16.0003 10.4071 17.1411 10.749 18.667L16 18.667L16 3.41699C15.9999 2.90875 15.7979 2.42091 15.4385 2.06152C15.124 1.747 14.7113 1.55332 14.2725 1.50977L14.083 1.5L3.41699 1.5ZM17.5 18.3604C17.9452 16.9906 19.2319 16 20.75 16C22.379 16.0002 23.7401 17.1411 24.082 18.667L26.083 18.667C26.2376 18.6669 26.3868 18.6054 26.4961 18.4961C26.6052 18.3868 26.6669 18.2385 26.667 18.084L26.667 13.2188L26.6582 13.1201C26.6415 13.0236 26.6 12.9318 26.5381 12.8545L26.5381 12.8535L21.8975 7.05371C21.843 6.98548 21.773 6.92956 21.6943 6.8916C21.655 6.87269 21.6135 6.8583 21.5713 6.84863L21.4424 6.83398L17.5 6.83398L17.5 18.3604Z" fill="rgb(255,255,255)" fill-opacity="0.400000006" fill-rule="nonzero" />
</svg>
