<svg viewBox="0 0 30.8333 28.1667" xmlns="http://www.w3.org/2000/svg" xmlns:xlink="http://www.w3.org/1999/xlink" width="30.833344" height="28.166687" fill="none" customFrame="#000000">
	<path id="Materials" d="M15.4167 27.4167L12.9779 20.1004C12.8418 19.6921 12.4597 19.4167 12.0292 19.4167L5.47076 19.4167C5.04033 19.4167 4.65819 19.6921 4.52208 20.1004L2.52208 26.1004C2.30623 26.748 2.7882 27.4167 3.47076 27.4167L15.4167 27.4167L27.3626 27.4167C28.0451 27.4167 28.5271 26.748 28.3113 26.1004L26.3113 20.1004C26.1751 19.6921 25.793 19.4167 25.3626 19.4167L18.8041 19.4167C18.3737 19.4167 17.9915 19.6921 17.8554 20.1004L15.4167 27.4167M12.1374 11.4167C11.707 11.4167 11.3249 11.6921 11.1887 12.1004L9.18874 18.1004C8.9729 18.748 9.45487 19.4167 10.1374 19.4167L20.6959 19.4167C21.3785 19.4167 21.8604 18.748 21.6446 18.1004L19.6446 12.1004C19.5085 11.6921 19.1263 11.4167 18.6959 11.4167L12.1374 11.4167ZM0.75 15.4167L4.75 15.4167M5.01667 5.01667L7.81667 7.81667M15.4167 0.75L15.4167 4.75M25.8167 5.01667L23.0167 7.81667M30.0833 15.4167L26.0833 15.4167" fill-rule="evenodd" stroke="rgb(255,255,255)" stroke-opacity="0.400000006" stroke-linecap="round" stroke-linejoin="round" stroke-width="1.5" />
</svg>
