<svg viewBox="0 0 32 32" xmlns="http://www.w3.org/2000/svg" xmlns:xlink="http://www.w3.org/1999/xlink" width="32.000008" height="32.000000" fill="none">
	<rect id="Resource" width="32.000000" height="32.000000" x="-0.000008" y="0.000061" fill="rgb(255,255,255)" fill-opacity="0" />
	<path id="Vector" d="M19.3747 16.6254L8.82533 27.1734C8.2949 27.7038 7.57548 28.0018 6.82533 28.0018C6.07518 28.0018 5.35576 27.7038 4.82533 27.1734C4.2949 26.643 3.9969 25.9236 3.9969 25.1734C3.9969 24.4233 4.2949 23.7038 4.82533 23.1734L15.3747 12.6241" fill-rule="nonzero" stroke="rgb(255,255,255)" stroke-linecap="round" stroke-linejoin="round" stroke-width="1.60000002" />
	<path id="Vector" d="M20.9147 5.75205C18.9017 4.49803 16.6442 3.68807 14.2932 3.37628C11.9421 3.0645 9.55159 3.25806 7.28133 3.94405C7.07922 4.07272 6.91551 4.25347 6.80742 4.46729C6.69934 4.68112 6.65086 4.92012 6.6671 5.15916C6.68333 5.3982 6.76368 5.62845 6.89969 5.82569C7.0357 6.02294 7.22234 6.17989 7.44 6.28005C10.4765 7.31715 13.3223 8.84545 15.864 10.804" fill-rule="nonzero" stroke="rgb(255,255,255)" stroke-linecap="round" stroke-linejoin="round" stroke-width="1.60000002" />
	<path id="Vector" d="M22.6667 4.55225C22.3177 4.55225 21.9826 4.68909 21.7333 4.93339L15.6 11.0667C15.3557 11.316 15.2188 11.6511 15.2188 12.0001C15.2188 12.3491 15.3557 12.6842 15.6 12.9334L19.0667 16.4001C19.3159 16.6444 19.651 16.7812 20 16.7812C20.349 16.7812 20.6841 16.6444 20.9333 16.4001L27.0667 10.2667C27.311 10.0175 27.4478 9.68239 27.4478 9.33339C27.4478 8.98439 27.311 8.64929 27.0667 8.40006L23.6 4.93339C23.3508 4.68909 23.0157 4.55225 22.6667 4.55225Z" fill-rule="nonzero" stroke="rgb(255,255,255)" stroke-linecap="round" stroke-linejoin="round" stroke-width="1.60000002" />
	<path id="Vector" d="M26.248 11.0854C27.5019 13.0984 28.3118 15.3559 28.6236 17.7069C28.9354 20.0579 28.7419 22.4484 28.056 24.7187C27.9272 24.9205 27.7465 25.0839 27.5329 25.1918C27.3192 25.2996 27.0804 25.348 26.8416 25.3317C26.6028 25.3155 26.3728 25.2353 26.1757 25.0995C25.9785 24.9637 25.8216 24.7774 25.7213 24.5601C24.6844 21.523 23.1561 18.6768 21.1973 16.1347" fill-rule="nonzero" stroke="rgb(255,255,255)" stroke-linecap="round" stroke-linejoin="round" stroke-width="1.60000002" />
</svg>
