<svg viewBox="0 0 28.167 26.6232" xmlns="http://www.w3.org/2000/svg" xmlns:xlink="http://www.w3.org/1999/xlink" width="28.166992" height="26.623230" fill="none" customFrame="#000000">
	<path id="Stock" d="M12.8193 0.24231C13.5803 -0.0606432 14.4232 -0.0795109 15.1943 0.185669L15.3477 0.24231L15.3486 0.243286L26.0127 4.50891L26.0137 4.50891C26.6466 4.76103 27.1907 5.19683 27.5742 5.75989C27.9577 6.323 28.1642 6.98877 28.167 7.67004L28.167 23.2062C28.1669 24.1122 27.8067 24.9815 27.166 25.6222C26.5253 26.2628 25.656 26.6231 24.75 26.6232L3.41699 26.6232C2.51105 26.6232 1.64168 26.2627 1.00098 25.6222C0.360308 24.9815 9.09471e-05 24.1122 0 23.2062L0 7.67004L0.0107422 7.41516C0.0573299 6.82371 0.257159 6.25267 0.592773 5.75989C0.976324 5.19682 1.5194 4.76099 2.15234 4.50891L12.8184 0.243286L12.8193 0.24231ZM14.791 1.63489C14.3362 1.45426 13.8287 1.45393 13.374 1.63489L13.375 1.63586L2.70898 5.90247L2.70703 5.90247C2.35204 6.04391 2.04714 6.28877 1.83203 6.60461C1.61699 6.92047 1.50154 7.29379 1.5 7.6759L1.5 23.2062C1.50009 23.7144 1.70216 24.2023 2.06152 24.5616C2.42092 24.9208 2.90888 25.1232 3.41699 25.1232L5.33301 25.1232L5.33301 9.87219C5.33316 9.45811 5.66889 9.12219 6.08301 9.12219L22.083 9.12219C22.4971 9.12219 22.8329 9.45811 22.833 9.87219L22.833 25.1232L24.75 25.1232C25.2582 25.1231 25.7461 24.921 26.1055 24.5616C26.4648 24.2023 26.6669 23.7144 26.667 23.2062L26.667 7.6759L26.6611 7.53333C26.6351 7.20148 26.5222 6.88111 26.334 6.60461C26.1189 6.28879 25.814 6.0439 25.459 5.90247L25.458 5.90247L14.791 1.63586L14.791 1.63489ZM6.83301 21.2892L6.83301 25.1222L21.333 25.1222L21.333 21.2892L6.83301 21.2892ZM6.83301 15.9562L6.83301 19.7892L21.333 19.7892L21.333 15.9562L6.83301 15.9562ZM6.83301 14.4562L21.333 14.4562L21.333 10.6222L6.83301 10.6222L6.83301 14.4562Z" fill="rgb(255,255,255)" fill-opacity="0.400000006" fill-rule="nonzero" />
</svg>
